<svg height="512pt" viewBox="0 0 512 512" width="512pt" xmlns="http://www.w3.org/2000/svg"><path d="m104 104h400v320h-400zm0 0" fill="#ffd54f"/><path d="m104 104h400v64h-400zm0 0" fill="#7986cb"/><path d="m56 56h400v320h-400zm0 0" fill="#ffd54f"/><path d="m56 56h400v64h-400zm0 0" fill="#7986cb"/><path d="m8 8h400v320h-400zm0 0" fill="#ffe082"/><path d="m8 8h400v64h-400zm0 0" fill="#9fa8da"/><path d="m360 224c-.007812-55.355469-43.375-101.003906-98.65625-103.847656-55.285156-2.84375-103.105469 38.113281-108.792969 93.175781s32.753907 104.929687 87.449219 113.449219v33.222656h32v-33.222656c50.65625-7.886719 88.007812-51.511719 88-102.777344zm0 0" fill="#cfd8dc"/><path d="m224 360h64v144h-64zm0 0" fill="#ff8a65"/><path d="m328 224c0 39.765625-32.234375 72-72 72s-72-32.234375-72-72 32.234375-72 72-72 72 32.234375 72 72zm0 0" fill="#9fa8da"/><g fill="#fff"><path d="m144 32h240v16h-240zm0 0"/><path d="m32 32h16v16h-16zm0 0"/><path d="m64 32h16v16h-16zm0 0"/><path d="m96 32h16v16h-16zm0 0"/><path d="m210.347656 234.339844 32-32 11.3125 11.3125-32 32zm0 0"/><path d="m258.34375 234.34375 32-32 11.3125 11.3125-32 32zm0 0"/><path d="m48 128h152v16h-152zm0 0"/><path d="m48 176h112v16h-112zm0 0"/><path d="m48 224h100v16h-100zm0 0"/><path d="m48 272h120v16h-120zm0 0"/></g><path d="m464 96v-48h-48v-48h-416v336h48v48h48v48h120v80h80v-80h216v-336zm-48-32h32v48h-32zm-400-48h384v48h-384zm0 304v-240h384v240h-86.105469c43.046875-25.992188 63.488281-77.484375 50-125.925781-13.492187-48.4375-57.613281-81.949219-107.894531-81.949219s-94.402344 33.511719-107.894531 81.949219c-13.488281 48.441406 6.953125 99.933593 50 125.925781zm225.222656-1.136719c-49.546875-7.71875-84.808594-52.269531-80.9375-102.265625s45.570313-88.589844 95.714844-88.589844 91.84375 38.59375 95.714844 88.589844-31.390625 94.546875-80.9375 102.265625l-6.777344 1.046875v32.089844h-16v-32.089844zm-25.222656 97.136719h-104v-32h104zm0-48h-152v-32h168v16h-16zm64 128h-48v-128h48zm0-144v-16h136v-208h32v240h-152v-16zm216 64h-200v-32h168v-208h32zm0-256h-32v-48h32zm0 0"/><path d="m336 224c0-44.183594-35.816406-80-80-80s-80 35.816406-80 80 35.816406 80 80 80c44.164062-.046875 79.953125-35.835938 80-80zm-144 0c0-35.347656 28.652344-64 64-64s64 28.652344 64 64-28.652344 64-64 64c-35.328125-.039062-63.960938-28.671875-64-64zm0 0"/></svg>